General
Unique ID                                : 168581933386944416814751710392706698374 (0x7ED3B309356263E1563E0C6B57388C86)
Complete name                            : miwa - Teenage Dream [WEB-DL 1080p AAC x264-SEKAI].mkv
Format                                   : Matroska
Format version                           : Version 4
File size                                : 191 MiB
Duration                                 : 4 min 11 s
Overall bit rate                         : 6 367 kb/s
Frame rate                               : 29.970 FPS
Title                                    : miwa - Teenage Dream [WEB-DL 1080p AAC x264-SEKAI]
Encoded date                             : 2025-08-11 09:54:30 UTC
Writing application                      : mkvmerge 94.0 ('Initiate') 64-bit
Writing library                          : libebml v1.4.5 + libmatroska v1.7.1
Website                                  : https://sekai-archivist.blogspot.com/

Video
ID                                       : 1
Format                                   : AVC
Format/Info                              : Advanced Video Codec
Format profile                           : High@L4.1
Format settings                          : CABAC / 4 Ref Frames
Format settings, CABAC                   : Yes
Format settings, Reference frames        : 4 frames
Format settings, Slice count             : 8 slices per frame
Codec ID                                 : V_MPEG4/ISO/AVC
Duration                                 : 4 min 11 s
Bit rate                                 : 6 113 kb/s
Width                                    : 1 920 pixels
Height                                   : 1 080 pixels
Display aspect ratio                     : 16:9
Frame rate mode                          : Constant
Frame rate                               : 29.970 (30000/1001) FPS
Color space                              : YUV
Chroma subsampling                       : 4:2:0 (Type 2)
Bit depth                                : 8 bits
Scan type                                : Progressive
Bits/(Pixel*Frame)                       : 0.098
Stream size                              : 183 MiB (96%)
Language                                 : Japanese
Default                                  : Yes
Forced                                   : No
Color range                              : Limited
Color primaries                          : BT.709
Transfer characteristics                 : BT.709
Matrix coefficients                      : BT.709

Audio
ID                                       : 2
Format                                   : AAC LC
Format/Info                              : Advanced Audio Codec Low Complexity
Codec ID                                 : A_AAC-2
Duration                                 : 4 min 11 s
Bit rate                                 : 253 kb/s
Channel(s)                               : 2 channels
Channel layout                           : L R
Sampling rate                            : 48.0 kHz
Frame rate                               : 46.875 FPS (1024 SPF)
Compression mode                         : Lossy
Stream size                              : 7.58 MiB (4%)
Language                                 : Japanese
Default                                  : Yes
Forced                                   : No


